<?xml version="1.0" encoding="UTF-8"?>
<svg version="1.1" xmlns="http://www.w3.org/2000/svg" width="542" height="149">
<path d="M0 0 C178.86 0 357.72 0 542 0 C542 49.17 542 98.34 542 149 C363.14 149 184.28 149 0 149 C0 99.83 0 50.66 0 0 Z " fill="#FDFEFE" transform="translate(0,0)"/>
<path d="M0 0 C8.15737151 5.5113424 13.37898048 13.55714884 16 23 C17.15456386 34.81553666 15.06488893 44.22106776 7.953125 53.73828125 C2.34286996 60.23495659 -4.47479106 64.49515857 -13.078125 65.28125 C-23.33513446 65.56749212 -29.49142683 63.67238212 -38 58 C-38.33 71.86 -38.66 85.72 -39 100 C-46.26 100 -53.52 100 -61 100 C-61 66.01 -61 32.02 -61 -3 C-53.74 -3 -46.48 -3 -39 -3 C-38.67 -0.69 -38.34 1.62 -38 4 C-37.175 3.236875 -36.35 2.47375 -35.5 1.6875 C-25.5066516 -6.45522833 -10.93951188 -6.42267509 0 0 Z " fill="#187646" transform="translate(162,46)"/>
<path d="M0 0 C6.84722609 7.03742682 9.25 13.68278633 9.25 23.3125 C2.32 23.3125 -4.61 23.3125 -11.75 23.3125 C-13.07 20.3425 -14.39 17.3725 -15.75 14.3125 C-20.61328855 10.3221094 -26.29445569 9.96844184 -32.39453125 10.01953125 C-36.26349552 10.50074571 -39.56767988 12.08812318 -42.75 14.3125 C-43.95272819 16.71795638 -43.85071472 18.26246953 -43.8125 20.9375 C-43.80347656 21.75476563 -43.79445313 22.57203125 -43.78515625 23.4140625 C-43.77355469 24.04054687 -43.76195313 24.66703125 -43.75 25.3125 C-35.86975697 28.51826195 -27.87670528 31.06379003 -19.62597656 33.12402344 C-11.85230822 35.06971708 -4.6196818 37.02432702 2.25 41.3125 C3.178125 41.89 4.10625 42.4675 5.0625 43.0625 C11.62660759 49.81415352 13.58263519 57.28583337 13.4609375 66.4375 C12.82605541 75.09070773 8.91035532 81.81943949 2.7265625 87.78125 C-8.14320743 96.47706595 -23.4927387 97.02625086 -36.75 96.3125 C-48.24325041 94.80393098 -57.89090708 90.66249713 -65.28125 81.51171875 C-69.89347 74.60565529 -70.82484846 68.63886382 -71.75 60.3125 C-64.16 60.3125 -56.57 60.3125 -48.75 60.3125 C-48.193125 62.045 -47.63625 63.7775 -47.0625 65.5625 C-44.90489011 71.45996702 -42.8014708 73.85941867 -37.125 76.5625 C-29.22937504 78.31708332 -21.98574644 77.99384468 -14.75 74.3125 C-11.87604031 71.65408729 -10.90752637 70.15264062 -10.1875 66.3125 C-10.95443165 62.22219785 -12.5942524 60.98242301 -15.75 58.3125 C-18.22375882 57.28651708 -20.44249865 56.50465192 -23 55.8125 C-23.6916626 55.60947266 -24.3833252 55.40644531 -25.09594727 55.19726562 C-28.05918924 54.33189113 -31.03405374 53.51055732 -34.00927734 52.6875 C-50.77768789 48.03465684 -50.77768789 48.03465684 -57.75 43.3125 C-58.6575 42.755625 -59.565 42.19875 -60.5 41.625 C-66.23641914 35.72923588 -68.2638714 29.42127627 -68.375 21.25 C-68.23901019 13.28395771 -66.30584367 8.26254354 -61.0234375 2.39453125 C-44.26619387 -13.77655365 -18.53077732 -11.37115881 0 0 Z " fill="#187646" transform="translate(74.75,14.6875)"/>
<path d="M0 0 C2.45374384 1.53878851 4.69481021 3.21527212 6.84375 5.15625 C7.17375 3.17625 7.50375 1.19625 7.84375 -0.84375 C15.10375 -0.84375 22.36375 -0.84375 29.84375 -0.84375 C29.84375 20.60625 29.84375 42.05625 29.84375 64.15625 C22.58375 64.15625 15.32375 64.15625 7.84375 64.15625 C7.34875 61.18625 7.34875 61.18625 6.84375 58.15625 C6.06 58.919375 5.27625 59.6825 4.46875 60.46875 C-1.99145954 65.78181953 -10.06307159 66.75678388 -18.20703125 66.49609375 C-27.26768993 65.45201785 -34.22409085 60.97144048 -40.15625 54.15625 C-46.75053522 44.26482217 -48.84905624 34.45233853 -46.6953125 22.625 C-43.8131959 12.99533982 -37.67536874 4.91322866 -28.98046875 -0.09765625 C-19.8271834 -4.39715363 -9.03754016 -4.72110307 0 0 Z " fill="#187646" transform="translate(509.15625,44.84375)"/>
<path d="M0 0 C5.15097415 4.56877592 8.49097467 9.43837418 11.0390625 15.80859375 C11.0390625 20.42859375 11.0390625 25.04859375 11.0390625 29.80859375 C-5.4609375 29.80859375 -21.9609375 29.80859375 -38.9609375 29.80859375 C-36.67136851 39.56960127 -36.67136851 39.56960127 -29.9609375 44.80859375 C-25.19642473 45.75637317 -21.88126225 45.26038954 -17.5234375 43.12109375 C-14.50827262 40.74141554 -14.50827262 40.74141554 -12.9609375 35.80859375 C-5.3709375 35.80859375 2.2190625 35.80859375 10.0390625 35.80859375 C7.00331592 45.92774903 3.55391886 53.16027468 -5.9609375 58.30859375 C-16.72311499 62.79107239 -29.88436529 63.77905622 -40.9609375 59.80859375 C-50.39265593 55.41850113 -56.84551493 50.18134677 -60.94140625 40.48828125 C-64.14613809 31.12986244 -64.19447123 21.66905109 -60.41015625 12.48046875 C-55.72456837 3.84181077 -49.09659457 -1.77299862 -39.9609375 -5.19140625 C-39.31640625 -5.43503906 -38.671875 -5.67867187 -38.0078125 -5.9296875 C-25.64611572 -9.74727033 -10.43943392 -7.61129637 0 0 Z " fill="#197746" transform="translate(250.9609375,49.19140625)"/>
<path d="M0 0 C4.27755675 3.11306761 7.35576778 6.82725175 10.125 11.3125 C10.50785156 11.90804687 10.89070313 12.50359375 11.28515625 13.1171875 C12.125 15.3125 12.125 15.3125 12.125 22.3125 C4.865 22.3125 -2.395 22.3125 -9.875 22.3125 C-10.535 20.3325 -11.195 18.3525 -11.875 16.3125 C-14.77552786 12.94788768 -18.38327965 12.58487266 -22.625 12.25 C-26.04822839 12.34508968 -28.11094153 13.33817252 -30.875 15.3125 C-35.10118094 20.85025434 -35.69783079 27.53823551 -34.875 34.3125 C-33.59487895 38.13959765 -31.78347594 41.23578777 -29.1875 44.3125 C-24.27004006 46.43896916 -19.39626609 45.83802829 -14.4375 44.125 C-11.33652642 42.27991426 -11.33652642 42.27991426 -9.875 37.3125 C-2.615 37.3125 4.645 37.3125 12.125 37.3125 C10.79370595 45.30026431 7.73159255 51.60188778 1.3125 56.75 C-8.18584054 63.19140335 -19.70671026 64.18539631 -30.875 63.3125 C-41.06697246 60.87199047 -48.76141837 55.80934227 -54.875 47.3125 C-60.15816139 38.66732681 -60.01040034 28.3479271 -58.4375 18.6015625 C-55.99167152 9.88829855 -49.79457855 3.14094248 -42.17578125 -1.46875 C-29.24358621 -8.31908082 -12.53825133 -7.68203379 0 0 Z " fill="#187646" transform="translate(331.875,47.6875)"/>
<path d="M0 0 C7.26 0 14.52 0 22 0 C22 8.25 22 16.5 22 25 C25.96 25 29.92 25 34 25 C34 30.61 34 36.22 34 42 C30.04 42 26.08 42 22 42 C22 58.17 22 74.34 22 91 C14.74 91 7.48 91 0 91 C0 74.83 0 58.66 0 42 C-3.96 42 -7.92 42 -12 42 C-12 36.39 -12 30.78 -12 25 C-8.04 25 -4.08 25 0 25 C0 16.75 0 8.5 0 0 Z " fill="#197746" transform="translate(364,18)"/>
<path d="M0 0 C0.97324219 0.00644531 1.94648438 0.01289062 2.94921875 0.01953125 C5.3125 0.1875 5.3125 0.1875 6.3125 1.1875 C6.39919432 2.6762186 6.41953494 4.168945 6.41015625 5.66015625 C6.40693359 6.55927734 6.40371094 7.45839844 6.40039062 8.38476562 C6.38782227 9.80305664 6.38782227 9.80305664 6.375 11.25 C6.37048828 12.19939453 6.36597656 13.14878906 6.36132812 14.12695312 C6.3495011 16.48053065 6.33302025 18.83398477 6.3125 21.1875 C5.19681641 20.70410156 5.19681641 20.70410156 4.05859375 20.2109375 C0.42644959 18.85727922 -2.88807705 18.59780567 -6.6875 19.1875 C-11.78550033 21.6384617 -14.55034277 25.0203569 -16.6875 30.1875 C-17.23879772 33.1217773 -17.2921391 35.9844655 -17.296875 38.96484375 C-17.31341125 39.77619278 -17.32994751 40.58754181 -17.34698486 41.42347717 C-17.39520084 43.99073046 -17.416776 46.55739263 -17.4375 49.125 C-17.46568192 50.87568036 -17.49561244 52.6263335 -17.52734375 54.37695312 C-17.60421585 58.64740035 -17.64497659 62.91602325 -17.6875 67.1875 C-24.9475 67.1875 -32.2075 67.1875 -39.6875 67.1875 C-39.6875 45.4075 -39.6875 23.6275 -39.6875 1.1875 C-32.4275 1.1875 -25.1675 1.1875 -17.6875 1.1875 C-17.3575 3.4975 -17.0275 5.8075 -16.6875 8.1875 C-16.22859375 7.77757812 -15.7696875 7.36765625 -15.296875 6.9453125 C-14.68328125 6.40648437 -14.0696875 5.86765625 -13.4375 5.3125 C-12.83421875 4.77882813 -12.2309375 4.24515625 -11.609375 3.6953125 C-7.71196238 0.63758634 -4.96546548 -0.07292406 0 0 Z " fill="#1A7747" transform="translate(448.6875,41.8125)"/>
<path d="M0 0 C5.67507225 2.00296668 9.30675089 5.61350179 12 11 C12.55713132 16.95701945 12.52180186 21.95208399 9 27 C5.22347448 30.70603038 2.10703506 33.13939853 -3.25 33.3125 C-8.71014405 33.22499769 -11.65677871 31.39281327 -15.4765625 27.4921875 C-18.7591642 23.54939775 -19.68159554 20.30995203 -19.3515625 15.203125 C-18.53874151 10.10944678 -16.83594966 6.46108162 -12.9375 3.125 C-8.54827671 -0.0501828 -5.35683662 -0.54069005 0 0 Z " fill="#FAFCFB" transform="translate(142,60)"/>
<path d="M0 0 C5.37717179 2.18732412 8.27959259 4.7855298 11.1171875 9.859375 C12.89846433 14.17857722 12.77068627 17.75353151 11.265625 22.140625 C9.28992896 26.51306706 7.11163054 29.36433939 3 32 C-1.72441408 33.57480469 -6.10962395 33.79132021 -10.6875 31.875 C-15.06021153 28.32955822 -18.62634873 24.55887523 -19.23828125 18.73046875 C-19.4079021 12.91872264 -18.99969908 9.54019896 -15 5 C-10.07558611 0.66182586 -6.61303887 -0.82662986 0 0 Z " fill="#FBFCFB" transform="translate(505,60)"/>
<path d="M0 0 C5.24429588 1.85092796 7.86073684 4.56809907 11 9 C11 9.99 11 10.98 11 12 C1.43 12 -8.14 12 -18 12 C-16.87308642 6.3654321 -16.87308642 6.3654321 -13.5625 3.75 C-12.94503906 3.24984375 -12.32757813 2.7496875 -11.69140625 2.234375 C-7.98794229 -0.46838392 -4.44500112 -0.44865432 0 0 Z " fill="#F8FAF9" transform="translate(230,56)"/>
</svg>
