<?xml version="1.0" encoding="UTF-8"?>
<svg version="1.1" xmlns="http://www.w3.org/2000/svg" width="501" height="157">
<path d="M0 0 C165.33 0 330.66 0 501 0 C501 51.81 501 103.62 501 157 C335.67 157 170.34 157 0 157 C0 105.19 0 53.38 0 0 Z " fill="#FDFEFE" transform="translate(0,0)"/>
<path d="M0 0 C7.61213792 4.02995537 13.36658324 10.80714785 16 19 C16.50489301 21.75396187 16.83987502 24.22935263 17 27 C17.05285156 27.87011719 17.10570312 28.74023438 17.16015625 29.63671875 C17.49707837 40.1398997 14.47597112 47.76389313 8 56 C2.34130283 61.8158832 -6.66342378 64.62615722 -14.625 65.3125 C-22.09412787 65.21459008 -27.82433824 62.17566176 -33 57 C-33.33 69.54 -33.66 82.08 -34 95 C-39.94 95 -45.88 95 -52 95 C-52 62.99 -52 30.98 -52 -2 C-46.39 -2 -40.78 -2 -35 -2 C-34.67 0.64 -34.34 3.28 -34 6 C-33.01 4.88625 -33.01 4.88625 -32 3.75 C-22.85298976 -5.21815808 -11.32394726 -4.62161098 0 0 Z " fill="#31924B" transform="translate(155,58)"/>
<path d="M0 0 C0.72123047 -0.01224609 1.44246094 -0.02449219 2.18554688 -0.03710938 C12.49549149 -0.06484914 21.45772972 2.87138257 29 10 C33.01438576 14.2273296 35.6875 18.17187267 35.6875 24.1875 C33.06319876 24.8570256 30.43813343 25.52323718 27.8125 26.1875 C27.06613281 26.37828125 26.31976563 26.5690625 25.55078125 26.765625 C19.9140625 28.1875 19.9140625 28.1875 17.6875 28.1875 C16.57421875 26.54296875 16.57421875 26.54296875 15.375 24.375 C12.57825707 19.70551181 9.83893502 17.90464501 4.6875 16.1875 C-0.09335625 15.63201004 -3.43677277 15.72575291 -7.75 18 C-10.4762653 20.32729964 -12.09044685 21.98206862 -12.75 25.5625 C-12.11338458 29.38219251 -10.19950499 30.67944515 -7.3125 33.1875 C-4.31582208 34.65124164 -4.31582208 34.65124164 -1.015625 35.65234375 C0.79421875 36.26432617 0.79421875 36.26432617 2.640625 36.88867188 C3.89359375 37.29666016 5.1465625 37.70464844 6.4375 38.125 C28.12919076 45.20869276 28.12919076 45.20869276 33.6875 54.1875 C37.33435836 61.52878444 37.5938517 67.89258034 35.25 75.6875 C32.17535676 83.4386111 26.48927651 88.23183704 19 91.6875 C8.04020848 95.15990919 -7.6056272 95.2666917 -18.125 90.4453125 C-26.62405423 85.55835632 -32.30884902 79.74457131 -35.3125 70.1875 C-35.3125 69.1975 -35.3125 68.2075 -35.3125 67.1875 C-32.73056023 66.51499476 -30.14717929 65.84932099 -27.5625 65.1875 C-26.46808594 64.90132812 -26.46808594 64.90132812 -25.3515625 64.609375 C-21.86678354 63.72234036 -18.93126278 63.1875 -15.3125 63.1875 C-15.09335937 63.79078125 -14.87421875 64.3940625 -14.6484375 65.015625 C-12.48956499 70.4566858 -10.75577087 73.46586457 -5.3125 76.1875 C-0.31246764 78.18751294 5.59393728 77.84609194 10.5625 75.9375 C13.65296609 74.46681609 13.65296609 74.46681609 15.125 72.375 C15.8815476 69.43287045 16.05870365 67.21899645 15.6875 64.1875 C12.95100406 60.0120954 10.61585641 58.37080114 5.9375 56.75 C4.22046875 56.13125 4.22046875 56.13125 2.46875 55.5 C1.20872176 55.06138257 -0.05171134 54.62392684 -1.3125 54.1875 C-25.54641813 45.71966374 -25.54641813 45.71966374 -32.3125 32.1875 C-33.2361539 23.84822478 -32.37395246 17.02960802 -27.3125 10.1875 C-19.35703855 2.46073765 -10.85523575 0.00954726 0 0 Z " fill="#32924B" transform="translate(51.3125,28.8125)"/>
<path d="M0 0 C6.59112511 5.32406964 9.8776147 12.23062905 11.55078125 20.45703125 C11.55078125 24.08703125 11.55078125 27.71703125 11.55078125 31.45703125 C-4.28921875 31.45703125 -20.12921875 31.45703125 -36.44921875 31.45703125 C-33.88851487 40.37423879 -33.88851487 40.37423879 -27.625 45.53125 C-23.67904846 47.21022759 -19.65003296 47.00121255 -15.44921875 46.45703125 C-11.08949551 44.23753578 -9.42515649 42.42494824 -6.44921875 38.45703125 C-1.16921875 39.11703125 4.11078125 39.77703125 9.55078125 40.45703125 C8.27775198 48.09520686 5.13413577 51.33089631 -0.44921875 56.45703125 C-9.40711738 62.55094808 -20.98468182 62.70477907 -31.44921875 61.45703125 C-40.70304039 58.73709018 -46.74844031 53.40037096 -51.7578125 45.35546875 C-56.16766571 36.47472629 -56.08007806 23.69645721 -53.26171875 14.26953125 C-52.4140625 12.26953125 -52.4140625 12.26953125 -51.44921875 10.45703125 C-51.12050781 9.83828125 -50.79179687 9.21953125 -50.453125 8.58203125 C-46.35611762 2.00413705 -39.08625969 -2.65368633 -31.79296875 -5.0703125 C-21.10542705 -7.22563341 -9.30851078 -5.86421333 0 0 Z " fill="#32924C" transform="translate(235.44921875,60.54296875)"/>
<path d="M0 0 C3.65681829 4.06313143 6.22232341 7.61029273 6.30297852 13.16674805 C6.32794151 14.3840284 6.32794151 14.3840284 6.35340881 15.62590027 C6.36182297 16.49572037 6.37023712 17.36554047 6.37890625 18.26171875 C6.39590073 19.16694778 6.4128952 20.07217682 6.43040466 21.00483704 C6.48347049 23.89898697 6.52374788 26.79312589 6.5625 29.6875 C6.60667869 32.56394324 6.6536808 35.44028521 6.70530701 38.31660461 C6.73680947 40.10411457 6.76383217 41.89171131 6.78553772 43.67936707 C6.87524812 49.18096841 7.31787186 54.53919479 8 60 C2.39 60 -3.22 60 -9 60 C-9.66 58.02 -10.32 56.04 -11 54 C-11.66 54.598125 -12.32 55.19625 -13 55.8125 C-21.04726238 61.68029548 -29.26910753 61.97525648 -39 61 C-43.96880046 59.48492314 -47.14591212 56.28113183 -50 52 C-52.05269742 45.84190774 -51.99718748 38.61168149 -49.6875 32.5625 C-40.16518746 23.48308572 -27.46910853 21.47612635 -15.05029297 18.5690918 C-13.02364883 18.18772495 -13.02364883 18.18772495 -12 17 C-12.09308537 13.51381119 -12.09308537 13.51381119 -13 10 C-17.39527531 6.92932821 -22.88554893 7.24230355 -28 8 C-31.41311667 10.52570633 -32.66637768 11.99913304 -34 16 C-36.10448938 15.85890014 -38.2085877 15.71195825 -40.3125 15.5625 C-41.48425781 15.48128906 -42.65601563 15.40007812 -43.86328125 15.31640625 C-47 15 -47 15 -50 14 C-49.56330642 8.54133027 -48.56112098 5.20029654 -45 1 C-33.28386446 -8.79501401 -11.95263816 -9.50778035 0 0 Z " fill="#31924B" transform="translate(481,61)"/>
<path d="M0 0 C6.65292267 3.67319346 12.48478408 9.1801647 15.3984375 16.32421875 C15.3984375 17.97421875 15.3984375 19.62421875 15.3984375 21.32421875 C10.1184375 21.98421875 4.8384375 22.64421875 -0.6015625 23.32421875 C-1.2821875 22.06609375 -1.9628125 20.80796875 -2.6640625 19.51171875 C-5.33353632 15.26311957 -7.67081022 13.68442628 -12.6015625 12.32421875 C-17.59783797 11.69968432 -20.85320716 12.41107189 -25.02734375 15.046875 C-28.92701803 18.21112684 -31.29239735 22.51639098 -31.83984375 27.48828125 C-32.03278625 33.88584848 -31.06362365 38.86952434 -27.6015625 44.32421875 C-23.38661339 48.338456 -20.62157025 49.62814614 -14.765625 49.54296875 C-10.3638686 49.09802586 -6.79829784 47.60073644 -3.7265625 44.32421875 C-2.46411318 42.22768124 -2.46411318 42.22768124 -1.6015625 39.32421875 C4.0084375 39.65421875 9.6184375 39.98421875 15.3984375 40.32421875 C14.27192271 48.20982231 12.34835989 53.00910532 6.2109375 58.16015625 C-3.74184703 65.05313202 -13.84228416 65.38792552 -25.6015625 64.32421875 C-29.08809876 63.51467999 -31.65355744 62.32286625 -34.6015625 60.32421875 C-35.63796875 59.70546875 -35.63796875 59.70546875 -36.6953125 59.07421875 C-43.45932556 54.63218032 -46.87939567 48.39479488 -49.9765625 41.07421875 C-51.77226559 30.30000024 -51.28326726 20.84902308 -45.6015625 11.32421875 C-35.07809194 -2.69929744 -15.9044689 -6.80596642 0 0 Z " fill="#32924C" transform="translate(305.6015625,57.67578125)"/>
<path d="M0 0 C5.61 0 11.22 0 17 0 C17 6.93 17 13.86 17 21 C21.29 21 25.58 21 30 21 C30 25.95 30 30.9 30 36 C25.71 36 21.42 36 17 36 C17.09343603 40.66344559 17.19950614 45.32636586 17.31738281 49.98925781 C17.35570585 51.57609138 17.39055288 53.16301281 17.421875 54.75 C17.46745431 57.02896566 17.52545838 59.30732468 17.5859375 61.5859375 C17.59748871 62.29744965 17.60903992 63.00896179 17.62094116 63.74203491 C17.63408239 67.82103657 17.63408239 67.82103657 20 71 C22.43252661 71.46162427 22.43252661 71.46162427 25.125 71.625 C27.538125 71.810625 27.538125 71.810625 30 72 C30 76.62 30 81.24 30 86 C27.14524694 86.08156437 24.29286435 86.14076372 21.4375 86.1875 C20.63763672 86.21263672 19.83777344 86.23777344 19.01367188 86.26367188 C13.54300766 86.3306596 9.83638002 85.60797201 5 83 C0.11142346 78.11142346 -1.83459657 73.90363049 -2.22705078 67.01416016 C-2.22673793 65.52242346 -2.21566592 64.03066038 -2.1953125 62.5390625 C-2.1924826 61.74849457 -2.18965271 60.95792664 -2.18673706 60.1434021 C-2.17560955 57.63710916 -2.15051926 55.13118355 -2.125 52.625 C-2.11496058 50.91797394 -2.10583641 49.21094223 -2.09765625 47.50390625 C-2.07569463 43.3357976 -2.04121671 39.16796092 -2 35 C-6.29 35 -10.58 35 -15 35 C-15 30.38 -15 25.76 -15 21 C-12.81901042 20.90234375 -10.63802083 20.8046875 -8.45703125 20.70703125 C-4.80148834 19.65511827 -3.29890445 18.00134748 -1 15 C-0.46812629 12.16431975 -0.21305964 10.00675895 -0.1875 7.1875 C-0.0946875 3.6296875 -0.0946875 3.6296875 0 0 Z " fill="#35944E" transform="translate(341,35)"/>
<path d="M0 0 C5.61 0 11.22 0 17 0 C17.33 2.97 17.66 5.94 18 9 C18.51949219 8.51789063 19.03898437 8.03578125 19.57421875 7.5390625 C26.06714261 1.65822573 28.89417536 0 38 0 C38 5.28 38 10.56 38 16 C36.123125 16.2475 34.24625 16.495 32.3125 16.75 C27.52750318 17.55595353 24.27236127 18.18224518 21 22 C18.63326318 26.52539141 18.6574761 30.81281938 18.5859375 35.80078125 C18.56657135 36.63715622 18.5472052 37.47353119 18.5272522 38.33525085 C18.46769808 40.9942317 18.42116826 43.6532564 18.375 46.3125 C18.33679794 48.12046109 18.29774491 49.92840442 18.2578125 51.73632812 C18.16042186 56.15745716 18.08066275 60.57840775 18 65 C12.06 65 6.12 65 0 65 C0 43.55 0 22.1 0 0 Z " fill="#30914A" transform="translate(385,56)"/>
<path d="M0 0 C3.97202943 2.73628694 7.88228581 6.17487594 9.4609375 10.86328125 C10.58901513 17.51893928 10.40801217 23.30508503 7.0234375 29.24609375 C4.5183214 32.74517527 1.8473056 34.5925648 -2.1875 35.9375 C-7.68052515 36.42101304 -12.57105065 36.63026401 -17.6875 34.4375 C-23.0764515 29.0485485 -24.44577998 24.45085257 -24.6875 16.8125 C-24.51940223 11.38699944 -24.10617927 7.96208952 -20.1875 3.9375 C-14.12858542 -1.53030096 -7.72089789 -2.57363263 0 0 Z " fill="#FBFDFC" transform="translate(144.1875,71.0625)"/>
<path d="M0 0 C-0.45507269 5.27884319 -0.87381193 9.56282984 -4 14 C-9.04186956 17.74074194 -13.83520844 18.82197221 -20 18 C-22.5 16.375 -22.5 16.375 -24 14 C-24.5625 11 -24.5625 11 -24 8 C-20.28401257 4.31216399 -16.41717397 2.94473004 -11.4375 1.75 C-10.77814453 1.57726562 -10.11878906 1.40453125 -9.43945312 1.2265625 C-6.15373069 0.39439963 -3.415748 0 0 0 Z " fill="#F8FBF9" transform="translate(471,92)"/>
<path d="M0 0 C3.91075925 1.98968453 5.57689098 3.36533646 8 7 C8 8.65 8 10.3 8 12 C-1.57 12 -11.14 12 -21 12 C-16.35172687 1.15402936 -11.30121656 -1.17953459 0 0 Z " fill="#FBFDFC" transform="translate(220,68)"/>
</svg>
